<svg xmlns="http://www.w3.org/2000/svg" viewBox="0 0 512 512">
 <defs>
  <linearGradient id="bg" x2="1" y2="1"><stop stop-color="#12284b"/><stop offset="1" stop-color="#080f20"/></linearGradient>
  <linearGradient id="back" x2=".85" y2="1"><stop stop-color="#538fe5"/><stop offset="1" stop-color="#19477f"/></linearGradient>
  <linearGradient id="face" x2=".2" y2="1"><stop stop-color="#fffefa"/><stop offset="1" stop-color="#dce6f4"/></linearGradient>
  <linearGradient id="suit" x2="0" y2="1"><stop stop-color="#367bd0"/><stop offset="1" stop-color="#17447f"/></linearGradient>
  <filter id="shadow" x="-.4" y="-.3" width="1.8" height="1.8"><feDropShadow dx="0" dy="15" stdDeviation="16" flood-color="#020713" flood-opacity=".58"/></filter>
  <pattern id="grain" width="42" height="42" patternUnits="userSpaceOnUse"><path d="M21 3L39 21 21 39 3 21Z" fill="none" stroke="#a8c9f5" stroke-opacity=".04" stroke-width="1.5"/></pattern>
  <path id="pip" d="M0-61C-13-35-45-15-45 11-45 34-24 42-10 31L-18 59H18L10 31C24 42 45 34 45 11 45-15 13-35 0-61Z"/>
 </defs>
 <rect width="512" height="512" fill="url(#bg)"/>
 <rect width="512" height="512" fill="url(#grain)"/>
 <circle cx="380" cy="112" r="104" fill="#3477ca" opacity=".08"/>
 <g filter="url(#shadow)">
  <g transform="rotate(11 324 255)">
   <rect x="204" y="89" width="216" height="326" rx="24" fill="url(#back)" stroke="#94bdf3" stroke-opacity=".7" stroke-width="3"/>
   <path d="M312 141l15 15-15 15-15-15zM312 340l15 15-15 15-15-15z" fill="#dbe9fb" opacity=".72"/>
   <path d="M312 183v120M264 243h96" stroke="#dbe9fb" stroke-opacity=".35" stroke-width="4"/>
  </g>
  <g transform="rotate(-9 231 265)">
   <rect x="111" y="93" width="245" height="350" rx="24" fill="url(#face)" stroke="#fff" stroke-width="4"/>
   <text x="143" y="157" fill="#123365" font-family="Georgia,serif" font-size="60" font-weight="700">A</text>
   <use href="#pip" x="144" y="187" transform="scale(.34) translate(278 365)" fill="#123365"/>
   <use href="#pip" x="232" y="267" fill="url(#suit)"/>
   <g transform="rotate(180 232 267)">
    <text x="143" y="157" fill="#123365" font-family="Georgia,serif" font-size="60" font-weight="700">A</text>
    <use href="#pip" x="144" y="187" transform="scale(.34) translate(278 365)" fill="#123365"/>
   </g>
  </g>
 </g>
 <path d="M392 86a4 4 0 1 0 8 0 4 4 0 0 0-8 0m9-9a3 3 0 1 0 6 0 3 3 0 0 0-6 0" fill="#a8c9f5" opacity=".85"/>
</svg>
